<svg width="800" height="578" viewBox="0 0 800 578" fill="none" xmlns="http://www.w3.org/2000/svg">
<path d="M800 488.889C800 512.464 790.635 535.073 773.965 551.743C757.295 568.413 734.686 577.778 711.111 577.778H88.8889C65.3141 577.778 42.7049 568.413 26.035 551.743C9.36505 535.073 0 512.464 0 488.889V88.8889C0 65.3141 9.36505 42.7048 26.035 26.0349C42.7049 9.36505 65.3141 0 88.8889 0H711.111C734.686 0 757.295 9.36505 773.965 26.0349C790.635 42.7048 800 65.3141 800 88.8889V488.889Z" fill="#009B3A"/>
<path d="M727.289 288.889L400 536.089L72.7112 288.889L400 41.6667L727.289 288.889Z" fill="#FEDF01"/>
<path d="M399.467 430.711C478.726 430.711 542.978 366.459 542.978 287.2C542.978 207.941 478.726 143.689 399.467 143.689C320.208 143.689 255.956 207.941 255.956 287.2C255.956 366.459 320.208 430.711 399.467 430.711Z" fill="#002776"/>
<path d="M272.822 219.711C265.369 233.757 260.321 248.953 257.889 264.667C346.667 258.222 467.156 306.689 518.867 366.778C527.8 353.355 534.422 338.333 538.489 322.244C474.667 259.844 362.556 219.356 272.822 219.711Z" fill="#CBE9D4"/>
<path d="M266.667 294.067H288.889V316.289H266.667V294.067ZM288.889 338.511H311.111V360.733H288.889V338.511Z" fill="#88C9F9"/>
<path d="M333.333 294.067H355.555V316.289H333.333V294.067ZM377.778 316.289H400V338.511H377.778V316.289ZM466.667 360.733H488.889V382.956H466.667V360.733ZM400 382.956H422.222V405.178H400V382.956ZM466.667 249.622H488.889V271.844H466.667V249.622Z" fill="#55ACEE"/>
<path d="M422.222 338.511H444.444V360.733H422.222V338.511Z" fill="#3B88C3"/>
</svg>
